<?xml version="1.0" standalone="no"?>
<!DOCTYPE svg PUBLIC "-//W3C//DTD SVG 20010904//EN"
 "http://www.w3.org/TR/2001/REC-SVG-20010904/DTD/svg10.dtd">
<svg version="1.0" xmlns="http://www.w3.org/2000/svg"
 width="144.000000pt" height="144.000000pt" viewBox="0 0 144.000000 144.000000"
 preserveAspectRatio="xMidYMid meet">
<metadata>
Created by potrace 1.11, written by Peter Selinger 2001-2013
</metadata>
<g transform="translate(0.000000,144.000000) scale(0.100000,-0.100000)"
fill="#000000" stroke="none">
<path d="M601 1179 c-1 -44 22 -195 35 -235 3 -11 -6 0 -20 24 -39 66 -150
205 -154 194 -2 -6 10 -37 26 -69 35 -69 53 -129 45 -150 -9 -23 -69 -11 -155
30 -70 34 -98 40 -66 14 20 -16 170 -129 194 -145 19 -13 19 -13 0 -7 -41 12
-216 36 -243 33 -23 -2 -15 -7 42 -26 79 -26 145 -65 145 -86 0 -19 -43 -49
-103 -71 -55 -21 -71 -37 -30 -30 15 3 69 9 119 14 89 9 211 52 228 79 3 6 -4
18 -16 27 l-23 17 29 -6 c29 -7 29 -7 23 31 l-6 38 15 -27 c18 -34 28 -35 49
-5 15 21 15 21 9 -12 l-7 -34 34 6 34 7 -27 -17 c-16 -10 -28 -21 -28 -25 0
-4 29 -21 65 -39 63 -31 149 -47 265 -48 35 -1 34 0 -20 25 -61 28 -90 51 -90
70 0 17 71 57 140 79 48 15 86 35 68 35 -32 0 -243 -33 -265 -41 -35 -13 -33
-11 57 49 79 53 164 122 157 128 -2 2 -36 -13 -76 -32 -40 -20 -93 -39 -118
-42 l-46 -5 5 44 c3 25 22 78 42 118 20 41 35 76 32 78 -5 6 -104 -117 -146
-182 -22 -34 -31 -42 -27 -25 10 45 25 144 32 205 8 75 -5 65 -35 -28 -20 -63
-61 -127 -80 -127 -17 0 -55 65 -82 140 l-27 75 0 -46z"/>
<path d="M674 1156 c-12 -31 0 -61 27 -64 31 -4 52 18 47 50 -2 18 -10 24 -36
26 -21 2 -34 -2 -38 -12z"/>
<path d="M411 1046 c-8 -10 -11 -26 -7 -41 6 -22 11 -26 39 -23 29 3 32 6 32
38 0 30 -4 35 -26 38 -14 2 -31 -4 -38 -12z"/>
<path d="M940 1041 c-16 -31 4 -63 37 -59 55 7 55 69 0 76 -18 2 -29 -3 -37
-17z"/>
<path d="M1066 787 c-38 -27 2 -95 42 -71 24 16 28 55 6 71 -10 7 -21 13 -24
13 -3 0 -14 -6 -24 -13z"/>
<path d="M294 765 c-8 -33 12 -57 45 -53 22 3 26 8 26 38 0 32 -3 35 -32 38
-28 3 -33 -1 -39 -23z"/>
<path d="M460 659 c-189 -13 -460 -61 -460 -81 0 -5 15 -6 33 -3 181 30 547
49 817 41 208 -5 506 -28 569 -42 17 -5 23 -3 16 3 -5 6 -41 18 -80 27 -242
56 -583 77 -895 55z"/>
<path d="M130 433 c0 -24 1 -25 13 -9 9 12 23 17 44 14 l31 -3 -49 -75 c-27
-41 -49 -78 -49 -82 0 -5 32 -8 70 -8 70 0 70 0 70 28 -1 23 -2 24 -11 10 -10
-18 -79 -27 -79 -10 0 4 21 38 45 76 25 38 45 73 45 78 0 4 -29 8 -65 8 -64 0
-65 0 -65 -27z"/>
<path d="M760 451 c0 -6 5 -13 11 -17 18 -11 3 -183 -18 -206 -22 -25 1 -24
26 1 22 22 29 54 33 159 l4 72 -28 0 c-15 0 -28 -4 -28 -9z"/>
<path d="M295 350 l0 -80 28 0 c15 0 27 5 27 10 0 6 -5 10 -11 10 -7 0 -9 24
-7 70 3 64 1 70 -17 70 -18 0 -20 -7 -20 -80z"/>
<path d="M390 369 c0 -33 -5 -69 -10 -80 -10 -17 -7 -19 22 -18 18 0 27 3 21
6 -8 3 -13 23 -13 51 l0 46 53 -52 c29 -29 56 -52 59 -52 4 0 8 36 10 80 3 80
3 80 -22 79 -14 0 -19 -3 -12 -6 7 -3 12 -24 12 -56 l0 -52 -51 58 c-28 31
-55 57 -60 57 -5 0 -9 -27 -9 -61z"/>
<path d="M581 404 c-64 -82 40 -178 123 -113 21 16 26 29 26 63 0 56 -22 76
-83 76 -37 0 -49 -5 -66 -26z m97 0 c25 -17 31 -81 10 -102 -32 -32 -98 4 -98
53 0 26 31 65 53 65 7 0 23 -7 35 -16z"/>
<path d="M870 410 c-31 -31 -27 -93 6 -119 60 -47 144 -10 144 64 0 50 -28 75
-85 75 -32 0 -51 -6 -65 -20z m95 -15 c29 -28 31 -51 9 -83 -31 -45 -94 -15
-94 44 0 23 7 38 22 48 30 21 35 20 63 -9z"/>
<path d="M1051 403 c10 -26 7 -81 -7 -117 -5 -13 2 -16 39 -16 65 0 100 43 65
79 -7 6 -13 26 -13 44 0 31 -1 32 -47 35 l-48 3 11 -28z m57 -11 c2 -15 -2
-22 -12 -22 -11 0 -16 9 -16 26 0 31 23 28 28 -4z m16 -64 c13 -22 -5 -44 -28
-35 -22 9 -22 60 0 55 9 -2 22 -11 28 -20z"/>
<path d="M1197 423 c-18 -17 -5 -58 25 -83 19 -16 28 -31 24 -38 -11 -17 -37
-15 -53 6 -12 16 -13 15 -11 -8 2 -19 10 -26 31 -28 63 -7 79 55 25 100 -25
20 -30 30 -22 38 9 9 17 9 33 1 17 -10 21 -9 21 4 0 10 -10 15 -33 15 -19 0
-37 -3 -40 -7z"/>
</g>
</svg>
